<svg width="109" height="25" viewBox="0 0 109 25" fill="none" xmlns="http://www.w3.org/2000/svg">
<path d="M10.5312 24C10.3229 23.5938 10.1719 23.0885 10.0781 22.4844C8.98438 23.7031 7.5625 24.3125 5.8125 24.3125C4.15625 24.3125 2.78125 23.8333 1.6875 22.875C0.604167 21.9167 0.0625 20.7083 0.0625 19.25C0.0625 17.4583 0.723958 16.0833 2.04688 15.125C3.38021 14.1667 5.30208 13.6823 7.8125 13.6719H9.89062V12.7031C9.89062 11.9219 9.6875 11.2969 9.28125 10.8281C8.88542 10.3594 8.25521 10.125 7.39062 10.125C6.63021 10.125 6.03125 10.3073 5.59375 10.6719C5.16667 11.0365 4.95312 11.5365 4.95312 12.1719H0.4375C0.4375 11.1927 0.739583 10.2865 1.34375 9.45312C1.94792 8.61979 2.80208 7.96875 3.90625 7.5C5.01042 7.02083 6.25 6.78125 7.625 6.78125C9.70833 6.78125 11.3594 7.30729 12.5781 8.35938C13.8073 9.40104 14.4219 10.8698 14.4219 12.7656V20.0938C14.4323 21.6979 14.6562 22.9115 15.0938 23.7344V24H10.5312ZM6.79688 20.8594C7.46354 20.8594 8.07812 20.7135 8.64062 20.4219C9.20312 20.1198 9.61979 19.7188 9.89062 19.2188V16.3125H8.20312C5.94271 16.3125 4.73958 17.0938 4.59375 18.6562L4.57812 18.9219C4.57812 19.4844 4.77604 19.9479 5.17188 20.3125C5.56771 20.6771 6.10938 20.8594 6.79688 20.8594ZM24.9219 20.6719C25.7552 20.6719 26.4323 20.4427 26.9531 19.9844C27.474 19.526 27.7448 18.9167 27.7656 18.1562H32C31.9896 19.3021 31.6771 20.3542 31.0625 21.3125C30.4479 22.2604 29.6042 23 28.5312 23.5312C27.4688 24.0521 26.2917 24.3125 25 24.3125C22.5833 24.3125 20.6771 23.5469 19.2812 22.0156C17.8854 20.474 17.1875 18.349 17.1875 15.6406V15.3438C17.1875 12.7396 17.8802 10.6615 19.2656 9.10938C20.651 7.55729 22.5521 6.78125 24.9688 6.78125C27.0833 6.78125 28.776 7.38542 30.0469 8.59375C31.3281 9.79167 31.9792 11.3906 32 13.3906H27.7656C27.7448 12.5156 27.474 11.8073 26.9531 11.2656C26.4323 10.7135 25.7448 10.4375 24.8906 10.4375C23.8385 10.4375 23.0417 10.8229 22.5 11.5938C21.9688 12.3542 21.7031 13.5938 21.7031 15.3125V15.7812C21.7031 17.5208 21.9688 18.7708 22.5 19.5312C23.0312 20.2917 23.8385 20.6719 24.9219 20.6719ZM43.1875 15.4219C43.1875 12.7865 43.776 10.6875 44.9531 9.125C46.1406 7.5625 47.7604 6.78125 49.8125 6.78125C51.4583 6.78125 52.8177 7.39583 53.8906 8.625V0H58.4219V24H54.3438L54.125 22.2031C53 23.6094 51.5521 24.3125 49.7812 24.3125C47.7917 24.3125 46.1927 23.5312 44.9844 21.9688C43.7865 20.3958 43.1875 18.2135 43.1875 15.4219ZM47.7031 15.75C47.7031 17.3333 47.9792 18.5469 48.5312 19.3906C49.0833 20.2344 49.8854 20.6562 50.9375 20.6562C52.3333 20.6562 53.3177 20.0677 53.8906 18.8906V12.2188C53.3281 11.0417 52.3542 10.4531 50.9688 10.4531C48.7917 10.4531 47.7031 12.2188 47.7031 15.75ZM69.7031 24.3125C67.224 24.3125 65.2031 23.5521 63.6406 22.0312C62.0885 20.5104 61.3125 18.4844 61.3125 15.9531V15.5156C61.3125 13.8177 61.6406 12.3021 62.2969 10.9688C62.9531 9.625 63.8802 8.59375 65.0781 7.875C66.2865 7.14583 67.6615 6.78125 69.2031 6.78125C71.5156 6.78125 73.3333 7.51042 74.6562 8.96875C75.9896 10.4271 76.6562 12.4948 76.6562 15.1719V17.0156H65.8906C66.0365 18.1198 66.474 19.0052 67.2031 19.6719C67.9427 20.3385 68.875 20.6719 70 20.6719C71.7396 20.6719 73.099 20.0417 74.0781 18.7812L76.2969 21.2656C75.6198 22.224 74.7031 22.974 73.5469 23.5156C72.3906 24.0469 71.1094 24.3125 69.7031 24.3125ZM69.1875 10.4375C68.2917 10.4375 67.5625 10.7396 67 11.3438C66.4479 11.9479 66.0938 12.8125 65.9375 13.9375H72.2188V13.5781C72.1979 12.5781 71.9271 11.8073 71.4062 11.2656C70.8854 10.7135 70.1458 10.4375 69.1875 10.4375ZM85.3438 18.4844L88.4844 7.09375H93.2031L87.5 24H83.1875L77.4844 7.09375H82.2031L85.3438 18.4844ZM104.359 19.3281C104.359 18.776 104.083 18.3438 103.531 18.0312C102.99 17.7083 102.115 17.4219 100.906 17.1719C96.8854 16.3281 94.875 14.6198 94.875 12.0469C94.875 10.5469 95.4948 9.29688 96.7344 8.29688C97.9844 7.28646 99.6146 6.78125 101.625 6.78125C103.771 6.78125 105.484 7.28646 106.766 8.29688C108.057 9.30729 108.703 10.6198 108.703 12.2344H104.188C104.188 11.5885 103.979 11.0573 103.562 10.6406C103.146 10.2135 102.495 10 101.609 10C100.849 10 100.26 10.1719 99.8438 10.5156C99.4271 10.8594 99.2188 11.2969 99.2188 11.8281C99.2188 12.3281 99.4531 12.7344 99.9219 13.0469C100.401 13.349 101.203 13.6146 102.328 13.8438C103.453 14.0625 104.401 14.3125 105.172 14.5938C107.557 15.4688 108.75 16.9844 108.75 19.1406C108.75 20.6823 108.089 21.9323 106.766 22.8906C105.443 23.8385 103.734 24.3125 101.641 24.3125C100.224 24.3125 98.9635 24.0625 97.8594 23.5625C96.7656 23.0521 95.9062 22.3594 95.2812 21.4844C94.6562 20.599 94.3438 19.6458 94.3438 18.625H98.625C98.6667 19.4271 98.9635 20.0417 99.5156 20.4688C100.068 20.8958 100.807 21.1094 101.734 21.1094C102.599 21.1094 103.25 20.9479 103.688 20.625C104.135 20.2917 104.359 19.8594 104.359 19.3281Z" fill="white"/>
<path d="M34.8125 21.7812C34.8125 21.0625 35.0521 20.4792 35.5312 20.0312C36.0208 19.5833 36.6302 19.3594 37.3594 19.3594C38.099 19.3594 38.7083 19.5833 39.1875 20.0312C39.6771 20.4792 39.9219 21.0625 39.9219 21.7812C39.9219 22.4896 39.6823 23.0677 39.2031 23.5156C38.724 23.9531 38.1094 24.1719 37.3594 24.1719C36.6198 24.1719 36.0104 23.9531 35.5312 23.5156C35.0521 23.0677 34.8125 22.4896 34.8125 21.7812Z" fill="#00F34A"/>
</svg>
